<?xml version="1.0"?>
<svg xmlns="http://www.w3.org/2000/svg" viewBox="0 0 50 50">
    <path style="text-indent:0;text-align:start;line-height:normal;text-transform:none;block-progression:tb;-inkscape-font-specification:Bitstream Vera Sans" d="M 25 8 C 21.452381 8 19.127233 8.2373245 17.65625 8.5 C 16.268868 8.7477468 15.669836 9.0294555 15.59375 9.0625 C 15.58915 9.06449 15.46875 9.09375 15.46875 9.09375 C 13.988938 9.5931239 11.733258 10.282727 10.6875 12.3125 C 10.434812 12.803168 10.05592 13.803394 9.5 15.21875 C 9.0727568 16.306498 8.5728652 17.676993 8.0625 19 L 5.09375 19 C 3.6092015 19 2.5079316 19.495331 1.84375 20.25 C 1.1795684 21.004669 1 21.899399 1 22.59375 C 1 23.370437 1.4064417 24.146568 2.03125 24.53125 C 2.6560583 24.915932 3.3544434 25 4.09375 25 L 5.75 25 C 5.5930795 25.416716 5.0625 26.8125 5.0625 26.8125 L 5 27 L 5 27.15625 L 5 35.15625 L 5 39 C 5 40.645667 6.3554467 42 8 42 L 12 42 C 13.645063 42 15 40.645063 15 39 L 15 38 L 35 38 L 35 39 C 35 40.645667 36.355447 42 38 42 L 42 42 C 43.645063 42 45 40.645063 45 39 L 45 34 L 45 27.15625 L 45 27 L 44.9375 26.8125 C 44.9375 26.8125 44.41308 25.420342 44.25 25 L 45.90625 25 C 46.645557 25 47.343942 24.91593 47.96875 24.53125 C 48.593558 24.146568 49 23.370437 49 22.59375 C 49 21.899399 48.820432 21.004669 48.15625 20.25 C 47.492068 19.495331 46.390798 19 44.90625 19 L 41.9375 19 C 41.87532 18.852655 41.813478 18.707326 41.78125 18.625 C 40.700913 15.829313 39.654729 13.163152 39.28125 12.3125 C 38.325908 10.138227 35.863603 9.4692552 34.53125 9.09375 C 34.48888 9.081807 34.41495 9.042596 34.375 9.03125 L 34.375 9.0625 C 34.282378 9.0226201 33.71156 8.7442517 32.34375 8.5 C 30.872767 8.2373245 28.547619 8 25 8 z M 25 10 C 28.452381 10 30.670983 10.262675 32 10.5 C 33.329017 10.737325 33.65625 10.90625 33.65625 10.90625 L 33.75 10.9375 L 33.8125 10.96875 C 35.030431 11.314654 36.995226 12.118423 37.4375 13.125 C 37.72646 13.783148 38.863114 16.706318 39.90625 19.375 C 40.155043 20.010543 40.574857 21.049882 40.4375 21.6875 C 40.36882 22.006309 40.24503 22.239045 39.78125 22.5 C 39.31747 22.760955 38.441365 23 37 23 L 13 23 C 11.558635 23 10.68253 22.760955 10.21875 22.5 C 9.7549699 22.239045 9.6311787 22.006309 9.5625 21.6875 C 9.4251426 21.049882 9.8449568 20.010543 10.09375 19.375 L 10.03125 19.34375 C 10.486387 18.1528 10.958347 16.918723 11.34375 15.9375 C 11.895205 14.533513 12.386438 13.409832 12.46875 13.25 C 13.024755 12.170817 14.752325 11.435945 16.21875 10.9375 L 16.28125 10.9375 L 16.34375 10.90625 C 16.34375 10.90625 16.670983 10.737325 18 10.5 C 19.329017 10.262675 21.547619 10 25 10 z M 5.09375 21 L 7.25 21 C 6.8714467 21.99628 6.8058922 22.190629 6.5 23 L 4.09375 23 C 3.5370566 23 3.1864417 22.90082 3.09375 22.84375 C 3.0010583 22.786682 3 22.874063 3 22.59375 C 3 22.232101 3.1014316 21.837831 3.34375 21.5625 C 3.5860684 21.287169 4.0062985 21 5.09375 21 z M 42.6875 21 L 44.90625 21 C 45.993702 21 46.413932 21.287169 46.65625 21.5625 C 46.898568 21.837831 47 22.232101 47 22.59375 C 47 22.874063 46.9989 22.786682 46.90625 22.84375 C 46.81356 22.90082 46.462943 23 45.90625 23 L 43.46875 23 C 43.150136 22.178119 43.078806 22.010572 42.6875 21 z M 8.4375 23.59375 C 8.6667017 23.83505 8.9324453 24.071322 9.25 24.25 C 10.153032 24.758108 11.347365 25 13 25 L 37 25 C 38.652635 25 39.846968 24.758108 40.75 24.25 C 41.067555 24.071322 41.333298 23.83505 41.5625 23.59375 C 42.149975 25.133405 42.966778 27.288306 43 27.375 L 43 34 L 43 35.15625 C 43 35.623369 42.609709 36 42.09375 36 L 7.90625 36 C 7.3902911 36 7 35.623369 7 35.15625 L 7 34 L 7 27.375 C 7.0319824 27.289631 7.8665047 25.115475 8.4375 23.59375 z M 11 26 C 9.3555411 26 8 27.354427 8 29 C 8 29.887879 8.3660231 30.674981 8.875 31.21875 C 9.3839769 31.762519 9.9943338 32.129545 10.59375 32.46875 C 11.442131 32.949972 12.020189 33.31529 12.6875 33.59375 C 13.354811 33.87221 14.075882 34 15 34 C 17.196258 34 19 32.19841 19 30 C 19 27.80159 17.196258 26 15 26 L 11 26 z M 35 26 C 32.803742 26 31 27.80159 31 30 C 31 32.19841 32.803742 34 35 34 C 35.924118 34 36.645189 33.87221 37.3125 33.59375 C 37.979811 33.31529 38.557869 32.949972 39.40625 32.46875 C 40.005666 32.129545 40.616023 31.762519 41.125 31.21875 C 41.633977 30.674981 42 29.887879 42 29 C 42 27.354427 40.644459 26 39 26 L 35 26 z M 11 28 L 15 28 C 16.115742 28 17 28.88241 17 30 C 17 31.11759 16.115742 32 15 32 C 14.248118 32 13.877939 31.93379 13.4375 31.75 C 12.997061 31.56621 12.447119 31.220528 11.5625 30.71875 C 11.000916 30.400955 10.584523 30.100981 10.34375 29.84375 C 10.102977 29.586519 10 29.419121 10 29 C 10 28.435573 10.436459 28 11 28 z M 35 28 L 39 28 C 39.563541 28 40 28.435573 40 29 C 40 29.419121 39.897023 29.586519 39.65625 29.84375 C 39.415477 30.100981 38.999084 30.400955 38.4375 30.71875 C 37.552881 31.220528 37.002939 31.56621 36.5625 31.75 C 36.122061 31.93379 35.751882 32 35 32 C 33.884258 32 33 31.11759 33 30 C 33 28.88241 33.884258 28 35 28 z M 7 37.84375 C 7.2886029 37.938494 7.5886071 38 7.90625 38 L 13 38 L 13 39 C 13 39.562937 12.562937 40 12 40 L 8 40 C 7.4385533 40 7 39.562333 7 39 L 7 37.84375 z M 43 37.84375 L 43 39 C 43 39.562937 42.562937 40 42 40 L 38 40 C 37.438553 40 37 39.562333 37 39 L 37 38 L 42.09375 38 C 42.411393 38 42.711397 37.938494 43 37.84375 z" overflow="visible" font-family="Bitstream Vera Sans"/>
</svg>
